<?xml version="1.0" encoding="UTF-8"?><svg id="Calque_2" xmlns="http://www.w3.org/2000/svg" xmlns:xlink="http://www.w3.org/1999/xlink" viewBox="0 0 60.56 44.19"><defs><style>.cls-1{fill:url(#Dégradé_sans_nom_152-2);}.cls-2{fill:url(#Dégradé_sans_nom_152);}</style><linearGradient id="Dégradé_sans_nom_152" x1="25.93" y1="11.99" x2="60.56" y2="11.99" gradientUnits="userSpaceOnUse"><stop offset="0" stop-color="#fcde9c"/><stop offset="1" stop-color="#fec091"/></linearGradient><linearGradient id="Dégradé_sans_nom_152-2" x1="0" y1="25.13" x2="58.06" y2="25.13" xlink:href="#Dégradé_sans_nom_152"/></defs><g id="Calque_1-2"><path class="cls-2" d="m48.56,23.99c-.75,0-1.36-.61-1.36-1.36v-10.63c0-.75.61-1.36,1.36-1.36s1.36.61,1.36,1.36v10.63c0,.75-.61,1.36-1.36,1.36Zm-5.32-5.32c-.75,0-1.36-.61-1.36-1.36V6.68c0-.75.61-1.36,1.36-1.36s1.36.61,1.36,1.36v10.63c0,.75-.61,1.36-1.36,1.36Zm10.63-1.77c-.75,0-1.36-.61-1.36-1.36v-7.09c0-.75.61-1.36,1.36-1.36s1.36.61,1.36,1.36v7.09c0,.75-.61,1.36-1.36,1.36Zm-21.27,0c-.75,0-1.36-.61-1.36-1.36v-7.09c0-.75.61-1.36,1.36-1.36s1.36.61,1.36,1.36v7.09c0,.75-.61,1.36-1.36,1.36Zm26.58-1.77c-.75,0-1.36-.61-1.36-1.36v-3.54c0-.75.61-1.36,1.36-1.36s1.36.61,1.36,1.36v3.54c0,.75-.61,1.36-1.36,1.36Zm-21.27,0c-.75,0-1.36-.61-1.36-1.36v-3.54c0-.75.61-1.36,1.36-1.36s1.36.61,1.36,1.36v3.54c0,.75-.61,1.36-1.36,1.36Zm-10.63,0c-.75,0-1.36-.61-1.36-1.36v-3.54c0-.75.61-1.36,1.36-1.36s1.36.61,1.36,1.36v3.54c0,.75-.61,1.36-1.36,1.36Zm21.27-8.86c-.75,0-1.36-.61-1.36-1.36V1.36c0-.75.61-1.36,1.36-1.36s1.36.61,1.36,1.36v3.54c0,.75-.61,1.36-1.36,1.36Z"/><path class="cls-1" d="m55.93,21.31c-.68.24-1.07.94-.97,1.66.06.45.09.91.09,1.37,0,8.92-11.68,16.17-26.03,16.17-5.26,0-10.34-.98-14.66-2.84-.22-.1-.44-.14-.68-.14-.21,0-.42.04-.63.12l-6.92,2.79.92-6.53c.07-.52-.11-1.04-.47-1.42-2.35-2.48-3.59-5.29-3.59-8.14,0-7.09,7.38-13.12,17.61-15.3.72-.15,1.3-.76,1.28-1.5-.02-.94-.88-1.63-1.77-1.44C8.46,8.59,0,15.82,0,24.34c0,3.46,1.38,6.82,4,9.76l-1.16,8.18c-.08.59.16,1.19.63,1.56.3.23.67.36,1.04.36.21,0,.43-.04.63-.12l8.52-3.44c4.6,1.88,9.89,2.88,15.35,2.88,16.01,0,29.03-8.6,29.03-19.17,0-.63-.05-1.26-.14-1.88-.14-.91-1.11-1.45-1.98-1.14h0Z"/></g></svg>