<svg width="1575" height="631" viewBox="0 0 1575 631" fill="none" xmlns="http://www.w3.org/2000/svg">
<path fill-rule="evenodd" clip-rule="evenodd" d="M281 379C283.761 379 286 381.239 286 384V518.5C286 521.261 283.761 523.5 281 523.5C278.239 523.5 276 521.261 276 518.5V384C276 381.239 278.239 379 281 379Z" fill="#202331"/>
<rect x="260" y="232" width="41" height="168" rx="20.5" fill="#202331"/>
<path d="M351 560.5C351 599.436 319.436 631 280.5 631C241.564 631 210 599.436 210 560.5C210 521.564 241.564 490 280.5 490C319.436 490 351 521.564 351 560.5Z" fill="#DB5461"/>
<path fill-rule="evenodd" clip-rule="evenodd" d="M280.5 610C307.838 610 330 587.838 330 560.5C330 533.162 307.838 511 280.5 511C253.162 511 231 533.162 231 560.5C231 587.838 253.162 610 280.5 610ZM280.5 631C319.436 631 351 599.436 351 560.5C351 521.564 319.436 490 280.5 490C241.564 490 210 521.564 210 560.5C210 599.436 241.564 631 280.5 631Z" fill="#202331"/>
<path fill-rule="evenodd" clip-rule="evenodd" d="M527 379C529.761 379 532 381.239 532 384V518.5C532 521.261 529.761 523.5 527 523.5C524.239 523.5 522 521.261 522 518.5V384C522 381.239 524.239 379 527 379Z" fill="#202331"/>
<rect x="506" y="232" width="41" height="168" rx="20.5" fill="#202331"/>
<path d="M597 560.5C597 599.436 565.436 631 526.5 631C487.564 631 456 599.436 456 560.5C456 521.564 487.564 490 526.5 490C565.436 490 597 521.564 597 560.5Z" fill="#28AFB0"/>
<path fill-rule="evenodd" clip-rule="evenodd" d="M526.5 610C553.838 610 576 587.838 576 560.5C576 533.162 553.838 511 526.5 511C499.162 511 477 533.162 477 560.5C477 587.838 499.162 610 526.5 610ZM526.5 631C565.436 631 597 599.436 597 560.5C597 521.564 565.436 490 526.5 490C487.564 490 456 521.564 456 560.5C456 599.436 487.564 631 526.5 631Z" fill="#202331"/>
<path fill-rule="evenodd" clip-rule="evenodd" d="M773 379C775.761 379 778 381.239 778 384V518.5C778 521.261 775.761 523.5 773 523.5C770.239 523.5 768 521.261 768 518.5V384C768 381.239 770.239 379 773 379Z" fill="#202331"/>
<rect x="752" y="232" width="41" height="168" rx="20.5" fill="#202331"/>
<path d="M843 560.5C843 599.436 811.436 631 772.5 631C733.564 631 702 599.436 702 560.5C702 521.564 733.564 490 772.5 490C811.436 490 843 521.564 843 560.5Z" fill="#0E76D6"/>
<path fill-rule="evenodd" clip-rule="evenodd" d="M772.5 610C799.838 610 822 587.838 822 560.5C822 533.162 799.838 511 772.5 511C745.162 511 723 533.162 723 560.5C723 587.838 745.162 610 772.5 610ZM772.5 631C811.436 631 843 599.436 843 560.5C843 521.564 811.436 490 772.5 490C733.564 490 702 521.564 702 560.5C702 599.436 733.564 631 772.5 631Z" fill="#202331"/>
<path fill-rule="evenodd" clip-rule="evenodd" d="M1019 379C1021.76 379 1024 381.239 1024 384V518.5C1024 521.261 1021.76 523.5 1019 523.5C1016.24 523.5 1014 521.261 1014 518.5V384C1014 381.239 1016.24 379 1019 379Z" fill="#202331"/>
<rect x="998" y="232" width="41" height="168" rx="20.5" fill="#202331"/>
<path d="M1089 560.5C1089 599.436 1057.44 631 1018.5 631C979.564 631 948 599.436 948 560.5C948 521.564 979.564 490 1018.5 490C1057.44 490 1089 521.564 1089 560.5Z" fill="#FCDE9C"/>
<path fill-rule="evenodd" clip-rule="evenodd" d="M1018.5 610C1045.84 610 1068 587.838 1068 560.5C1068 533.162 1045.84 511 1018.5 511C991.162 511 969 533.162 969 560.5C969 587.838 991.162 610 1018.5 610ZM1018.5 631C1057.44 631 1089 599.436 1089 560.5C1089 521.564 1057.44 490 1018.5 490C979.564 490 948 521.564 948 560.5C948 599.436 979.564 631 1018.5 631Z" fill="#202331"/>
<rect x="1427" y="134" width="148" height="53" rx="26.5" fill="#202331"/>
<path d="M0 97.5C0 85.0736 10.0736 75 22.5 75H163.5C175.926 75 186 85.0736 186 97.5V223.5C186 235.926 175.926 246 163.5 246H22.5C10.0736 246 0 235.926 0 223.5V97.5Z" fill="#EBEDF3"/>
<path fill-rule="evenodd" clip-rule="evenodd" d="M27 102V219H159V102H27ZM22.5 75C10.0736 75 0 85.0736 0 97.5V223.5C0 235.926 10.0736 246 22.5 246H163.5C175.926 246 186 235.926 186 223.5V97.5C186 85.0736 175.926 75 163.5 75H22.5Z" fill="#202331"/>
<path d="M64.1992 45C64.1992 20.1472 84.3464 0 109.199 0H1438C1462.85 0 1483 20.1472 1483 45V276C1483 300.853 1462.85 321 1438 321H109.199C84.3464 321 64.1992 300.853 64.1992 276V45Z" fill="#EBEDF3"/>
<path fill-rule="evenodd" clip-rule="evenodd" d="M114.199 50V271H1433V50H114.199ZM109.199 0C84.3464 0 64.1992 20.1472 64.1992 45V276C64.1992 300.853 84.3464 321 109.199 321H1438C1462.85 321 1483 300.853 1483 276V45C1483 20.1472 1462.85 0 1438 0H109.199Z" fill="#202331"/>
<circle cx="280.5" cy="211.5" r="40.5" fill="#202331"/>
<circle cx="527.25" cy="211.5" r="40.5" fill="#202331"/>
<circle cx="774" cy="211.5" r="40.5" fill="#202331"/>
<circle cx="1020.75" cy="211.5" r="40.5" fill="#202331"/>
<circle cx="1267.5" cy="211.5" r="40.5" fill="#202331"/>
<path d="M280.68 223.4V205.672L277 206.536V203.4L282.408 201H284.936V223.4H280.68Z" fill="#EBEDF3"/>
<path d="M519 223.784V220.808C520.365 219.677 521.688 218.557 522.968 217.448C524.269 216.339 525.421 215.24 526.424 214.152C527.448 213.064 528.259 212.008 528.856 210.984C529.475 209.939 529.784 208.925 529.784 207.944C529.784 207.027 529.528 206.216 529.016 205.512C528.525 204.808 527.704 204.456 526.552 204.456C525.379 204.456 524.493 204.84 523.896 205.608C523.299 206.376 523 207.304 523 208.392H519.032C519.075 206.749 519.437 205.384 520.12 204.296C520.803 203.187 521.709 202.365 522.84 201.832C523.971 201.277 525.24 201 526.648 201C528.931 201 530.701 201.629 531.96 202.888C533.24 204.125 533.88 205.736 533.88 207.72C533.88 208.957 533.592 210.163 533.016 211.336C532.461 212.509 531.725 213.64 530.808 214.728C529.891 215.816 528.899 216.84 527.832 217.8C526.765 218.739 525.731 219.613 524.728 220.424H534.424V223.784H519Z" fill="#EBEDF3"/>
<path d="M774.032 223.168C772.56 223.168 771.227 222.912 770.032 222.4C768.837 221.867 767.877 221.056 767.152 219.968C766.427 218.88 766.043 217.515 766 215.872H770.032C770.053 216.96 770.405 217.877 771.088 218.624C771.792 219.349 772.773 219.712 774.032 219.712C775.227 219.712 776.144 219.381 776.784 218.72C777.424 218.059 777.744 217.227 777.744 216.224C777.744 215.051 777.317 214.165 776.464 213.568C775.632 212.949 774.555 212.64 773.232 212.64H771.568V209.28H773.264C774.352 209.28 775.259 209.024 775.984 208.512C776.709 208 777.072 207.243 777.072 206.24C777.072 205.408 776.795 204.747 776.24 204.256C775.707 203.744 774.96 203.488 774 203.488C772.955 203.488 772.133 203.797 771.536 204.416C770.96 205.035 770.64 205.792 770.576 206.688H766.576C766.661 204.619 767.376 202.987 768.72 201.792C770.085 200.597 771.845 200 774 200C775.536 200 776.827 200.277 777.872 200.832C778.939 201.365 779.739 202.08 780.272 202.976C780.827 203.872 781.104 204.864 781.104 205.952C781.104 207.211 780.752 208.277 780.048 209.152C779.365 210.005 778.512 210.581 777.488 210.88C778.747 211.136 779.771 211.755 780.56 212.736C781.349 213.696 781.744 214.912 781.744 216.384C781.744 217.621 781.445 218.752 780.848 219.776C780.251 220.8 779.376 221.621 778.224 222.24C777.093 222.859 775.696 223.168 774.032 223.168Z" fill="#EBEDF3"/>
<path d="M1023.04 223.4V219.24H1012V215.976L1022.5 201H1027.14V215.688H1030.08V219.24H1027.14V223.4H1023.04ZM1016.38 215.688H1023.3V205.512L1016.38 215.688Z" fill="#EBEDF3"/>
<path d="M1268.19 223.784C1266.55 223.784 1265.13 223.496 1263.94 222.92C1262.76 222.344 1261.83 221.555 1261.15 220.552C1260.49 219.528 1260.11 218.376 1260 217.096H1264C1264.19 218.013 1264.66 218.781 1265.41 219.4C1266.15 219.997 1267.08 220.296 1268.19 220.296C1269.39 220.296 1270.36 219.859 1271.1 218.984C1271.87 218.109 1272.26 217.021 1272.26 215.72C1272.26 214.376 1271.87 213.309 1271.1 212.52C1270.36 211.731 1269.41 211.336 1268.26 211.336C1267.3 211.336 1266.46 211.571 1265.76 212.04C1265.06 212.509 1264.55 213.096 1264.26 213.8H1260.32L1262.24 201H1274.66V204.584H1265.31L1264.29 209.768C1264.76 209.256 1265.4 208.84 1266.21 208.52C1267.02 208.179 1267.93 208.008 1268.93 208.008C1270.53 208.008 1271.86 208.371 1272.93 209.096C1273.99 209.8 1274.81 210.739 1275.36 211.912C1275.91 213.064 1276.19 214.323 1276.19 215.688C1276.19 217.245 1275.85 218.632 1275.17 219.848C1274.51 221.064 1273.57 222.024 1272.35 222.728C1271.16 223.432 1269.77 223.784 1268.19 223.784Z" fill="#EBEDF3"/>
<rect x="40" y="134" width="17" height="10" rx="2" fill="#ACB5CD"/>
<rect x="40" y="156" width="17" height="10" rx="2" fill="#ACB5CD"/>
<rect x="40" y="178" width="17" height="10" rx="2" fill="#ACB5CD"/>
</svg>
